<svg width="151" height="37" viewBox="0 0 151 37" fill="none" xmlns="http://www.w3.org/2000/svg">
<path d="M60.4 13.7902H110.167L124.26 0.306396H59.0788C41.1475 0.306396 36.3029 2.35305 26.5508 11.2018C17.0504 20.171 0 36.4238 0 36.4238H21.2658C26.1104 31.9091 35.1075 23.6021 39.1971 19.87C44.9854 14.633 47.8167 13.7902 60.4 13.7902ZM128.287 0.306396L90.5371 36.4238H113.25L151 0.306396H128.287ZM107.839 16.0175H62.1617C48.1942 16.0175 45.8033 16.7398 39.8262 22.4584C34.2267 27.8158 25.1667 36.4238 25.1667 36.4238H44.9854L49.7042 31.9091C52.7871 28.9595 54.4229 28.5983 60.9033 28.5983H94.6896L107.839 16.0175Z" fill="#121212"/>
</svg>
